<?xml version="1.0" encoding="utf-8"?>
<svg xmlns="http://www.w3.org/2000/svg" viewBox="0 0 500 500" xmlns:bx="https://boxy-svg.com" width="500px" height="500px"><defs><bx:export><bx:file format="png" path="Logo2.png"/><bx:file format="svg" path="Logo2.svg"/><bx:file format="png" href="#object-5" path="Untitled 7.png"/></bx:export><linearGradient gradientUnits="userSpaceOnUse" x1="104.432" y1="154.738" x2="104.432" y2="464.471" id="gradient-0" gradientTransform="matrix(1, 0, 0, 1, -1.999926, -0.000013)"><stop offset="0" style="stop-color: rgb(82.745% 12.549% 16.471%)"/><stop offset="1" style="stop-color: rgb(56.219% 0% 6.919%)"/></linearGradient><linearGradient gradientUnits="userSpaceOnUse" x1="149.494" y1="-25.366" x2="149.494" y2="284.367" id="gradient-1" gradientTransform="matrix(1, 0, 0, 1, -2.000048, 0.000011)"><stop offset="0" style="stop-color: rgb(0% 66.667% 35.294%)"/><stop offset="1" style="stop-color: rgb(0% 40.088% 15.722%)"/></linearGradient><linearGradient gradientUnits="userSpaceOnUse" x1="268.596" y1="248.546" x2="268.596" y2="558.278" id="gradient-2" gradientTransform="matrix(1, 0, 0, 1, -3.000041, -0.00011)"><stop offset="0" style="stop-color: rgb(22.745% 6.2745% 41.176%)"/><stop offset="1" style="stop-color: rgb(16.121% 0.0885% 34.774%)"/></linearGradient><linearGradient gradientUnits="userSpaceOnUse" x1="410.88" y1="130.75" x2="410.88" y2="440.481" id="gradient-3" gradientTransform="matrix(1, 0, 0, 1, -0.000027, -1.000019)"><stop offset="0" style="stop-color: rgb(6.6667% 50.588% 83.137%)"/><stop offset="1" style="stop-color: rgb(0% 31.424% 52.446%)"/></linearGradient><linearGradient gradientUnits="userSpaceOnUse" x1="335.4" y1="-35.6" x2="335.4" y2="274.133" id="gradient-4" gradientTransform="matrix(1, 0, 0, 1, -0.000299, -6.000194)"><stop offset="0" style="stop-color: rgb(97.647% 98.039% 95.686%)"/><stop offset="1" style="stop-color: rgb(55.353% 55.71% 53.592%)"/></linearGradient></defs><path style="stroke: rgba(0, 0, 0, 0); fill: url(&quot;#gradient-3&quot;); transform-origin: 411.908px 284.314px;" d="M 444.938 144.709 L 455.904 153.751 L 466.961 163.922 L 475.535 173.544 L 481.578 183.487 L 488.03 196.054 L 492.62 209.493 L 495.672 224.023 L 497.452 239.279 L 498.259 253.649 L 498.38 270.613 L 497.314 288.454 L 494.332 306.454 L 490.221 323.394 L 481.992 346.108 L 472.569 364.871 L 457.643 389.164 L 443.788 405.61 L 430.598 419.062 L 419.5 427.128 L 410.182 433.47 L 402.499 437.601 L 397.787 439.455 L 395.225 439.481 L 392.791 438.298 L 392.515 436.571 L 393.665 434.419 L 401.01 427.076 L 407.083 419.68 L 411.726 412.879 L 417.807 400.714 L 424.56 384.719 L 428.354 371.956 L 430.437 359.003 L 430.369 345.806 L 427.056 329.906 L 421.74 317.134 L 414.934 306.598 L 404.44 295.883 C 404.44 295.883 392.253 287.535 392.17 287.536 C 392.086 287.537 371.806 276.326 371.806 276.326 L 358.637 269.59 L 347.13 260.964 L 336.537 248.76 L 330.138 236.583 L 325.626 225.078 L 323.38 210.15 L 323.77 197.772 L 326.02 186.186 L 329.867 173.814 L 335.549 163.62 L 342.005 155.733 L 348.816 149.679 L 356.796 142.761 L 367.085 137.202 L 377.754 132.978 L 390.324 130.435 L 400.5 129.75 L 411.004 130.757 L 420.323 132.819 L 428.773 135.67 L 436.621 139.653 L 444.938 144.709 Z" id="object-5"/><path style="stroke: rgba(0, 0, 0, 0); fill: url(&quot;#gradient-2&quot;); transform-origin: 266.624px 403.111px;" d="M 299.654 263.505 L 310.62 272.547 L 321.677 282.718 L 330.251 292.34 L 336.294 302.283 L 342.746 314.85 L 347.336 328.289 L 350.388 342.819 L 352.168 358.075 L 352.975 372.445 L 353.096 389.409 L 352.03 407.251 L 349.048 425.251 L 344.937 442.191 L 336.708 464.905 L 327.285 483.668 L 312.359 507.961 L 298.504 524.407 L 285.314 537.859 L 274.216 545.925 L 264.898 552.267 L 257.215 556.398 L 252.503 558.252 L 249.941 558.278 L 247.507 557.095 L 247.231 555.368 L 248.381 553.216 L 255.726 545.873 L 261.799 538.477 L 266.442 531.676 L 272.523 519.511 L 279.276 503.516 L 283.07 490.753 L 285.153 477.8 L 285.085 464.603 L 281.772 448.703 L 276.456 435.931 L 269.65 425.395 L 259.156 414.68 C 259.156 414.68 246.969 406.332 246.886 406.333 C 246.802 406.334 226.522 395.123 226.522 395.123 L 213.352 388.386 L 201.845 379.76 L 191.252 367.556 L 184.853 355.379 L 180.341 343.874 L 178.095 328.946 L 178.485 316.568 L 180.735 304.982 L 184.582 292.61 L 190.264 282.416 L 196.72 274.529 L 203.531 268.475 L 211.511 261.557 L 221.801 255.998 L 232.47 251.774 L 245.04 249.231 L 255.216 248.546 L 265.72 249.553 L 275.039 251.615 L 283.489 254.466 L 291.337 258.449 L 299.654 263.505 Z" id="path-1" transform="matrix(0.359703, 0.933067, -0.933067, 0.359703, -0.000017, -0.000006)"/><path style="stroke: rgba(0, 0, 0, 0); fill: url(&quot;#gradient-0&quot;); transform-origin: 103.46px 309.304px;" d="M 136.49 169.697 L 147.456 178.739 L 158.513 188.91 L 167.087 198.532 L 173.13 208.475 L 179.582 221.042 L 184.172 234.481 L 187.224 249.012 L 189.004 264.268 L 189.811 278.638 L 189.932 295.602 L 188.866 313.444 L 185.884 331.444 L 181.773 348.384 L 173.544 371.098 L 164.121 389.861 L 149.195 414.154 L 135.34 430.6 L 122.15 444.052 L 111.052 452.118 L 101.734 458.46 L 94.051 462.591 L 89.339 464.445 L 86.777 464.471 L 84.343 463.288 L 84.067 461.561 L 85.217 459.409 L 92.562 452.066 L 98.635 444.67 L 103.278 437.869 L 109.359 425.704 L 116.112 409.709 L 119.906 396.946 L 121.989 383.993 L 121.921 370.796 L 118.608 354.896 L 113.292 342.124 L 106.486 331.588 L 95.992 320.873 C 95.992 320.873 83.805 312.525 83.722 312.526 C 83.638 312.527 63.358 301.316 63.358 301.316 L 50.188 294.579 L 38.681 285.953 L 28.088 273.749 L 21.689 261.572 L 17.177 250.067 L 14.931 235.138 L 15.321 222.76 L 17.571 211.174 L 21.418 198.802 L 27.1 188.608 L 33.556 180.721 L 40.367 174.667 L 48.347 167.749 L 58.637 162.19 L 69.306 157.966 L 81.876 155.423 L 92.052 154.738 L 102.556 155.745 L 111.875 157.807 L 120.325 160.658 L 128.173 164.641 L 136.49 169.697 Z" id="path-2" transform="matrix(-0.773117, 0.634263, -0.634263, -0.773117, 0.000048, -0.000009)"/><path style="stroke: rgba(0, 0, 0, 0); fill: url(&quot;#gradient-1&quot;); transform-origin: 148.523px 129.2px;" d="M 181.553 -10.407 L 192.519 -1.365 L 203.576 8.806 L 212.15 18.428 L 218.193 28.371 L 224.645 40.938 L 229.235 54.377 L 232.287 68.908 L 234.067 84.164 L 234.874 98.534 L 234.995 115.498 L 233.929 133.34 L 230.947 151.34 L 226.836 168.28 L 218.607 190.994 L 209.184 209.757 L 194.258 234.05 L 180.403 250.496 L 167.213 263.948 L 156.115 272.014 L 146.797 278.356 L 139.114 282.487 L 134.402 284.341 L 131.84 284.367 L 129.406 283.184 L 129.13 281.457 L 130.28 279.305 L 137.625 271.962 L 143.698 264.566 L 148.341 257.765 L 154.422 245.6 L 161.175 229.605 L 164.969 216.842 L 167.052 203.889 L 166.984 190.692 L 163.671 174.792 L 158.355 162.02 L 151.549 151.484 L 141.055 140.769 C 141.055 140.769 128.868 132.421 128.785 132.422 C 128.701 132.423 108.421 121.212 108.421 121.212 L 95.251 114.475 L 83.744 105.849 L 73.151 93.645 L 66.752 81.468 L 62.24 69.963 L 59.994 55.034 L 60.384 42.656 L 62.634 31.07 L 66.481 18.698 L 72.163 8.504 L 78.619 0.617 L 85.43 -5.437 L 93.41 -12.355 L 103.7 -17.914 L 114.369 -22.138 L 126.939 -24.681 L 137.115 -25.366 L 147.619 -24.359 L 156.938 -22.297 L 165.388 -19.446 L 173.236 -15.463 L 181.553 -10.407 Z" id="path-3" transform="matrix(-0.818329, -0.57475, 0.57475, -0.818329, -0.000033, -0.000017)"/><path style="stroke: rgba(0, 0, 0, 0); fill: url(&quot;#gradient-4&quot;); transform-origin: 336.429px 112.966px;" d="M 369.459 -26.641 L 380.425 -17.599 L 391.482 -7.428 L 400.056 2.194 L 406.099 12.137 L 412.551 24.704 L 417.141 38.143 L 420.193 52.674 L 421.973 67.93 L 422.78 82.3 L 422.901 99.264 L 421.835 117.106 L 418.853 135.106 L 414.742 152.046 L 406.513 174.76 L 397.09 193.523 L 382.164 217.816 L 368.309 234.262 L 355.119 247.714 L 344.021 255.78 L 334.703 262.122 L 327.02 266.253 L 322.308 268.107 L 319.746 268.133 L 317.312 266.95 L 317.036 265.223 L 318.186 263.071 L 325.531 255.728 L 331.604 248.332 L 336.247 241.531 L 342.328 229.366 L 349.081 213.371 L 352.875 200.608 L 354.958 187.655 L 354.89 174.458 L 351.577 158.558 L 346.261 145.786 L 339.455 135.25 L 328.961 124.535 C 328.961 124.535 316.774 116.187 316.691 116.188 C 316.607 116.189 296.327 104.978 296.327 104.978 L 283.157 98.241 L 271.65 89.615 L 261.057 77.411 L 254.658 65.234 L 250.146 53.729 L 247.9 38.8 L 248.29 26.422 L 250.54 14.836 L 254.387 2.464 L 260.069 -7.73 L 266.525 -15.617 L 273.336 -21.671 L 281.316 -28.589 L 291.606 -34.148 L 302.275 -38.372 L 314.845 -40.915 L 325.021 -41.6 L 335.525 -40.593 L 344.844 -38.531 L 353.294 -35.68 L 361.142 -31.697 L 369.459 -26.641 Z" id="path-4" transform="matrix(0.173658, -0.984806, 0.984806, 0.173658, 0.000001, -0.000018)"/></svg>