<?xml version="1.0" encoding="utf-8"?>
<svg xmlns="http://www.w3.org/2000/svg" viewBox="0 0 500 500" xmlns:bx="https://boxy-svg.com" width="500px" height="500px"><defs><bx:export><bx:file format="png" path="Logo.png"/><bx:file format="svg" path="Logo.svg"/><bx:file format="png" href="#object-5" path="Untitled 7.png"/></bx:export><linearGradient gradientUnits="userSpaceOnUse" x1="104.432" y1="154.738" x2="104.432" y2="464.471" id="gradient-0" gradientTransform="matrix(1, 0, 0, 1, -1.999926, -0.000013)"><stop offset="0" style="stop-color: rgb(82.745% 12.549% 16.471%)"/><stop offset="1" style="stop-color: rgb(56.219% 0% 6.919%)"/></linearGradient><linearGradient gradientUnits="userSpaceOnUse" x1="149.494" y1="-25.366" x2="149.494" y2="284.367" id="gradient-1" gradientTransform="matrix(1, 0, 0, 1, -2.000048, 0.000011)"><stop offset="0" style="stop-color: rgb(0% 66.667% 35.294%)"/><stop offset="1" style="stop-color: rgb(0% 40.088% 15.722%)"/></linearGradient><linearGradient gradientUnits="userSpaceOnUse" x1="268.596" y1="248.546" x2="268.596" y2="558.278" id="gradient-2" gradientTransform="matrix(1, -0.000001, 0.000001, 1, -4.00039, -1.000009)"><stop offset="0" style="stop-color: rgb(22.745% 6.2745% 41.176%)"/><stop offset="1" style="stop-color: rgb(16.121% 0.0885% 34.774%)"/></linearGradient><linearGradient gradientUnits="userSpaceOnUse" x1="410.88" y1="130.75" x2="410.88" y2="440.481" id="gradient-3" gradientTransform="matrix(1, 0, 0, 1, -0.999819, -3.000168)"><stop offset="0" style="stop-color: rgb(6.6667% 50.588% 83.137%)"/><stop offset="1" style="stop-color: rgb(0% 31.424% 52.446%)"/></linearGradient><linearGradient gradientUnits="userSpaceOnUse" x1="335.4" y1="-35.6" x2="335.4" y2="274.133" id="gradient-4" gradientTransform="matrix(1, 0, 0, 1, -0.000299, -6.000194)"><stop offset="0" style="stop-color: rgb(97.647% 98.039% 95.686%)"/><stop offset="1" style="stop-color: rgb(55.353% 55.71% 53.592%)"/></linearGradient></defs><path style="stroke: rgba(0, 0, 0, 0); fill: url(&quot;#gradient-3&quot;); transform-origin: 410.908px 282.314px;" d="M 443.938 142.709 L 454.904 151.751 L 465.961 161.922 L 474.535 171.544 L 480.578 181.487 L 487.03 194.054 L 491.62 207.493 L 494.672 222.023 L 496.452 237.279 L 497.259 251.649 L 497.38 268.613 L 496.314 286.454 L 493.332 304.454 L 489.221 321.394 L 480.992 344.108 L 471.569 362.871 L 456.643 387.164 L 442.788 403.61 L 429.598 417.062 L 418.5 425.128 L 409.182 431.47 L 401.499 435.601 L 396.787 437.455 L 394.225 437.481 L 391.791 436.298 L 391.515 434.571 L 392.665 432.419 L 400.01 425.076 L 406.083 417.68 L 410.726 410.879 L 416.807 398.714 L 423.56 382.719 L 427.354 369.956 L 429.437 357.003 L 429.369 343.806 L 426.056 327.906 L 420.74 315.134 L 413.934 304.598 L 403.44 293.883 C 403.44 293.883 391.253 285.535 391.17 285.536 C 391.086 285.537 370.806 274.326 370.806 274.326 L 357.637 267.59 L 346.13 258.964 L 335.537 246.76 L 329.138 234.583 L 324.626 223.078 L 322.38 208.15 L 322.77 195.772 L 325.02 184.186 L 328.867 171.814 L 334.549 161.62 L 341.005 153.733 L 347.816 147.679 L 355.796 140.761 L 366.085 135.202 L 376.754 130.978 L 389.324 128.435 L 399.5 127.75 L 410.004 128.757 L 419.323 130.819 L 427.773 133.67 L 435.621 137.653 L 443.938 142.709 Z" id="object-5" transform="matrix(0.999391, -0.0349, 0.0349, 0.999391, 0, 0.000001)"/><path style="stroke: rgba(0, 0, 0, 0); fill: url(&quot;#gradient-2&quot;); transform-origin: 265.624px 402.111px;" d="M 298.654 262.505 L 309.62 271.547 L 320.677 281.718 L 329.251 291.34 L 335.294 301.283 L 341.746 313.85 L 346.336 327.289 L 349.388 341.819 L 351.168 357.075 L 351.975 371.445 L 352.096 388.409 L 351.03 406.251 L 348.048 424.251 L 343.937 441.191 L 335.708 463.905 L 326.285 482.668 L 311.359 506.961 L 297.504 523.407 L 284.314 536.859 L 273.216 544.925 L 263.898 551.267 L 256.215 555.398 L 251.503 557.252 L 248.941 557.278 L 246.507 556.095 L 246.231 554.368 L 247.381 552.216 L 254.726 544.873 L 260.799 537.477 L 265.442 530.676 L 271.523 518.511 L 278.276 502.516 L 282.07 489.753 L 284.153 476.8 L 284.085 463.603 L 280.772 447.703 L 275.456 434.931 L 268.65 424.395 L 258.156 413.68 C 258.156 413.68 245.969 405.332 245.886 405.333 C 245.802 405.334 225.522 394.123 225.522 394.123 L 212.352 387.386 L 200.845 378.76 L 190.252 366.556 L 183.853 354.379 L 179.341 342.874 L 177.095 327.946 L 177.485 315.568 L 179.735 303.982 L 183.582 291.61 L 189.264 281.416 L 195.72 273.529 L 202.531 267.475 L 210.511 260.557 L 220.801 254.998 L 231.47 250.774 L 244.04 248.231 L 254.216 247.546 L 264.72 248.553 L 274.039 250.615 L 282.489 253.466 L 290.337 257.449 L 298.654 262.505 Z" id="path-1" transform="matrix(0.390762, 0.920492, -0.920492, 0.390762, -0.000006, 0.000015)"/><path style="stroke: rgba(0, 0, 0, 0); fill: url(&quot;#gradient-0&quot;); transform-origin: 103.46px 309.304px;" d="M 136.49 169.697 L 147.456 178.739 L 158.513 188.91 L 167.087 198.532 L 173.13 208.475 L 179.582 221.042 L 184.172 234.481 L 187.224 249.012 L 189.004 264.268 L 189.811 278.638 L 189.932 295.602 L 188.866 313.444 L 185.884 331.444 L 181.773 348.384 L 173.544 371.098 L 164.121 389.861 L 149.195 414.154 L 135.34 430.6 L 122.15 444.052 L 111.052 452.118 L 101.734 458.46 L 94.051 462.591 L 89.339 464.445 L 86.777 464.471 L 84.343 463.288 L 84.067 461.561 L 85.217 459.409 L 92.562 452.066 L 98.635 444.67 L 103.278 437.869 L 109.359 425.704 L 116.112 409.709 L 119.906 396.946 L 121.989 383.993 L 121.921 370.796 L 118.608 354.896 L 113.292 342.124 L 106.486 331.588 L 95.992 320.873 C 95.992 320.873 83.805 312.525 83.722 312.526 C 83.638 312.527 63.358 301.316 63.358 301.316 L 50.188 294.579 L 38.681 285.953 L 28.088 273.749 L 21.689 261.572 L 17.177 250.067 L 14.931 235.138 L 15.321 222.76 L 17.571 211.174 L 21.418 198.802 L 27.1 188.608 L 33.556 180.721 L 40.367 174.667 L 48.347 167.749 L 58.637 162.19 L 69.306 157.966 L 81.876 155.423 L 92.052 154.738 L 102.556 155.745 L 111.875 157.807 L 120.325 160.658 L 128.173 164.641 L 136.49 169.697 Z" id="path-2" transform="matrix(-0.773117, 0.634263, -0.634263, -0.773117, 0.000048, -0.000009)"/><path style="stroke: rgba(0, 0, 0, 0); fill: url(&quot;#gradient-1&quot;); transform-origin: 148.523px 129.2px;" d="M 181.553 -10.407 L 192.519 -1.365 L 203.576 8.806 L 212.15 18.428 L 218.193 28.371 L 224.645 40.938 L 229.235 54.377 L 232.287 68.908 L 234.067 84.164 L 234.874 98.534 L 234.995 115.498 L 233.929 133.34 L 230.947 151.34 L 226.836 168.28 L 218.607 190.994 L 209.184 209.757 L 194.258 234.05 L 180.403 250.496 L 167.213 263.948 L 156.115 272.014 L 146.797 278.356 L 139.114 282.487 L 134.402 284.341 L 131.84 284.367 L 129.406 283.184 L 129.13 281.457 L 130.28 279.305 L 137.625 271.962 L 143.698 264.566 L 148.341 257.765 L 154.422 245.6 L 161.175 229.605 L 164.969 216.842 L 167.052 203.889 L 166.984 190.692 L 163.671 174.792 L 158.355 162.02 L 151.549 151.484 L 141.055 140.769 C 141.055 140.769 128.868 132.421 128.785 132.422 C 128.701 132.423 108.421 121.212 108.421 121.212 L 95.251 114.475 L 83.744 105.849 L 73.151 93.645 L 66.752 81.468 L 62.24 69.963 L 59.994 55.034 L 60.384 42.656 L 62.634 31.07 L 66.481 18.698 L 72.163 8.504 L 78.619 0.617 L 85.43 -5.437 L 93.41 -12.355 L 103.7 -17.914 L 114.369 -22.138 L 126.939 -24.681 L 137.115 -25.366 L 147.619 -24.359 L 156.938 -22.297 L 165.388 -19.446 L 173.236 -15.463 L 181.553 -10.407 Z" id="path-3" transform="matrix(-0.818329, -0.57475, 0.57475, -0.818329, -0.000033, -0.000017)"/><path style="stroke: rgba(0, 0, 0, 0); fill: url(&quot;#gradient-4&quot;); transform-origin: 336.429px 112.966px;" d="M 369.459 -26.641 L 380.425 -17.599 L 391.482 -7.428 L 400.056 2.194 L 406.099 12.137 L 412.551 24.704 L 417.141 38.143 L 420.193 52.674 L 421.973 67.93 L 422.78 82.3 L 422.901 99.264 L 421.835 117.106 L 418.853 135.106 L 414.742 152.046 L 406.513 174.76 L 397.09 193.523 L 382.164 217.816 L 368.309 234.262 L 355.119 247.714 L 344.021 255.78 L 334.703 262.122 L 327.02 266.253 L 322.308 268.107 L 319.746 268.133 L 317.312 266.95 L 317.036 265.223 L 318.186 263.071 L 325.531 255.728 L 331.604 248.332 L 336.247 241.531 L 342.328 229.366 L 349.081 213.371 L 352.875 200.608 L 354.958 187.655 L 354.89 174.458 L 351.577 158.558 L 346.261 145.786 L 339.455 135.25 L 328.961 124.535 C 328.961 124.535 316.774 116.187 316.691 116.188 C 316.607 116.189 296.327 104.978 296.327 104.978 L 283.157 98.241 L 271.65 89.615 L 261.057 77.411 L 254.658 65.234 L 250.146 53.729 L 247.9 38.8 L 248.29 26.422 L 250.54 14.836 L 254.387 2.464 L 260.069 -7.73 L 266.525 -15.617 L 273.336 -21.671 L 281.316 -28.589 L 291.606 -34.148 L 302.275 -38.372 L 314.845 -40.915 L 325.021 -41.6 L 335.525 -40.593 L 344.844 -38.531 L 353.294 -35.68 L 361.142 -31.697 L 369.459 -26.641 Z" id="path-4" transform="matrix(0.173658, -0.984806, 0.984806, 0.173658, 0.000001, -0.000018)"/></svg>